<svg xmlns="http://www.w3.org/2000/svg" viewBox="0 0 64 64" role="img" aria-label="Three.js WebGPU Skill Pack">
  <rect width="64" height="64" rx="12" fill="#0a0c10"/>
  <g fill="none" stroke-linecap="round" stroke-linejoin="round">
    <path d="M16 20 32 11l16 9v24l-16 9-16-9Z" stroke="#7fd4c1" stroke-width="3"/>
    <path d="M16 44 32 34l16 10M16 20l16 14 16-14M32 11v42" stroke="#ffb454" stroke-width="2.5"/>
    <circle cx="32" cy="34" r="10" fill="#101821" stroke="#ece8de" stroke-width="2"/>
    <path d="M23 32c5 3 13 3 18 0M24 37c5 2 11 2 16 0M32 24v20" stroke="#7fd4c1" stroke-width="1.6" opacity=".9"/>
  </g>
  <g fill="#ece8de">
    <circle cx="16" cy="20" r="3"/>
    <circle cx="48" cy="20" r="3"/>
    <circle cx="16" cy="44" r="3"/>
    <circle cx="48" cy="44" r="3"/>
    <circle cx="32" cy="11" r="3"/>
    <circle cx="32" cy="53" r="3"/>
  </g>
</svg>
